<svg xmlns="http://www.w3.org/2000/svg" version="1.1" xmlns:xlink="http://www.w3.org/1999/xlink" xmlns:svgjs="http://svgjs.dev/svgjs" width="2000" height="1836" viewBox="0 0 2000 1836"><g transform="matrix(1,0,0,1,1.3403695684736476,0.7446924671858142)"><svg viewBox="0 0 269 247" data-background-color="#ffffff" preserveAspectRatio="xMidYMid meet" height="1836" width="2000" xmlns="http://www.w3.org/2000/svg" xmlns:xlink="http://www.w3.org/1999/xlink"><g id="tight-bounds" transform="matrix(1,0,0,1,-0.18027970695970907,-0.09997365579206985)"><svg viewBox="0 0 269.3605594139194 247.2" height="247.2" width="269.3605594139194"><g><svg viewBox="0 0 269.3605594139194 247.2" height="247.2" width="269.3605594139194"><g><svg viewBox="0 0 269.3605594139194 247.2" height="247.2" width="269.3605594139194"><g id="textblocktransform"><svg viewBox="0 0 269.3605594139194 247.2" height="247.2" width="269.3605594139194" id="textblock"><g><svg viewBox="0 0 269.3605594139194 247.2" height="247.2" width="269.3605594139194"><path d="M268.73 53.02C267.464 27.36 263.855 20.227 263.855 20.227 252.774-6.202 238.946-0.506 226.523 3.292 204.591 3.446 182.747 9.091 160.865 12.119 114.935 12.581 68.613 4.986 22.912 23.717 18.619 29.464-4.454 24.846 0.764 56.304 2.131 69.39 7.121 83.913 6.969 95.922 7.652 98.026 8.602 93.202 9.007 96.23 10.426 104.39 12.743 100.541 14.642 105.365 11.996 118.246 13.895 128.971 15.706 140.21 12.515 143.135 8.425 141.749 6.589 151.449 6.399 158.479 5.373 157.145 4.246 156.837 3.423 156.632 1.764 157.402 2.043 159.608 2.992 167.152-1.085 171.514 1.473 178.904-0.287 186.91 2.688 193.838 2.283 202.511 2.233 204.255 2.511 205.744 2.954 206.154 4.917 208.361 2.055 212.672 2.359 217.342 22.494 249.262 44.338 227.195 64.966 241.872 70.323 231.608 66.296 245.516 68.436 243.36 70.107 240.846 71.323 251.263 73.21 245.362 73.501 243.668 73.058 239.665 74.096 240.435 74.641 240.846 75.122 240.743 75.198 238.382 75.312 234.841 74.312 237.048 74.046 235.201 76.92 225.861 76.211 248.081 78.908 247.158 78.782 244.438 77.997 240.538 79.605 241.051 81.2 237.151 81.251 233.918 82.669 242.693 82.72 244.592 82.973 245.926 83.378 246.85 87.811 237.305 92.217 250.237 96.865 245.926 99.714 241.205 102.449 248.492 105.336 246.696 106.349 245.259 107.375 242.693 108.35 247.004 120.292 247.928 133.018 244.079 144.339 247.158 174.592 241.41 206.921 249.518 238.819 241.923 246.341 238.998 254.155 234.841 261.487 231.506 261.487 231.506 267.426 222.371 267.426 181.316S268.692 145.393 268.882 112.703C269.072 80.013 269.958 78.679 268.692 53.02Z" opacity="1" fill="#ff5733" data-fill-palette-color="tertiary"></path><g transform="matrix(1,0,0,1,55.76832,26.230666666666668)"><svg width="157.8239194139194" viewBox="1.05 -35.79 28.81 35.550000000000004" height="194.73866666666666" data-palette-color="#ffffff"><path d="M29.86-23.54L29.86-23.54Q29.86-21.63 29.53-20.08 29.2-18.53 28.49-17.24 27.78-15.94 26.66-14.84 25.54-13.75 23.95-12.74L23.95-12.74 29.76-2.39 18.77-0.24 15.01-10.64 11.99-10.55 11.55-0.39 1.05-0.39Q1.17-5.96 1.28-11.47 1.39-16.99 1.54-22.56L1.54-22.56Q1.59-25.37 1.64-28.13 1.68-30.88 1.83-33.69L1.83-33.69Q3.54-34.33 5.2-34.74 6.86-35.16 8.53-35.39 10.21-35.62 11.93-35.71 13.65-35.79 15.45-35.79L15.45-35.79Q18.24-35.79 20.84-35.02 23.44-34.25 25.44-32.71 27.44-31.18 28.65-28.88 29.86-26.59 29.86-23.54ZM18.92-22.75L18.92-22.75Q18.92-23.78 18.64-24.63 18.36-25.49 17.81-26.11 17.26-26.73 16.44-27.09 15.63-27.44 14.53-27.44L14.53-27.44Q14.04-27.44 13.57-27.38 13.11-27.32 12.67-27.2L12.67-27.2 12.28-18.12 12.87-18.12Q13.92-18.12 15-18.38 16.09-18.65 16.96-19.21 17.82-19.78 18.37-20.65 18.92-21.53 18.92-22.75Z" opacity="1" transform="matrix(1,0,0,1,0,0)" fill="#ffffff" class="wordmark-text-0" data-fill-palette-color="quaternary" id="text-0"></path></svg></g></svg></g></svg></g></svg></g><g></g></svg></g><defs></defs></svg><rect width="269.3605594139194" height="247.2" fill="none" stroke="none" visibility="hidden"></rect></g></svg></g></svg>